<?xml version="1.0" encoding="UTF-8" standalone="no"?>
<!DOCTYPE svg PUBLIC "-//W3C//DTD SVG 1.1//EN"
 "http://www.w3.org/Graphics/SVG/1.1/DTD/svg11.dtd">
<!-- Generated by graphviz version 2.49.3 (0)
 -->
<!-- Title: Entity Relationship Diagram created by erdantic Pages: 1 -->
<svg width="478pt" height="517pt"
 viewBox="0.00 0.00 478.00 516.80" xmlns="http://www.w3.org/2000/svg" xmlns:xlink="http://www.w3.org/1999/xlink">
<g id="graph0" class="graph" transform="scale(1 1) rotate(0) translate(4 512.8)">
<title>Entity Relationship Diagram created by erdantic</title>
<polygon fill="white" stroke="transparent" points="-4,4 -4,-512.8 474,-512.8 474,4 -4,4"/>
<text text-anchor="middle" x="235" y="-6.7" font-family="Times New Roman,Times,Liberation Serif,serif" font-size="9.00" fill="#a8a8a8">Created by erdantic v1.0.5 &lt;https://github.com/drivendataorg/erdantic&gt;</text>
<!-- schema_display.invoice.BillingAddress -->
<g id="node1" class="node">
<title>schema_display.invoice.BillingAddress</title>
<g id="a_node1"><a xlink:title="schema_display.invoice.BillingAddress&#10;&#10;Usage docs: https://docs.pydantic.dev/2.9/concepts/models/&#10;&#10;A base class for creating Pydantic models.&#10;&#10;Attributes:&#10; &#160;&#160;&#160;__class_vars__: The names of the class variables defined on the model.&#10; &#160;&#160;&#160;__private_attributes__: Metadata about the private attributes of the model.&#10; &#160;&#160;&#160;__signature__: The synthesized `__init__` [`Signature`][inspect.Signature] of the model.&#10;&#10; &#160;&#160;&#160;__pydantic_complete__: Whether model building is completed, or if there are still undefined fields.&#10; &#160;&#160;&#160;__pydantic_core_schema__: The core schema of the model.&#10; &#160;&#160;&#160;__pydantic_custom_init__: Whether the model has a custom `__init__` function.&#10; &#160;&#160;&#160;__pydantic_decorators__: Metadata containing the decorators defined on the model.&#10; &#160;&#160;&#160;&#160;&#160;&#160;&#160;This replaces `Model.__validators__` and `Model.__root_validators__` from Pydantic V1.&#10; &#160;&#160;&#160;__pydantic_generic_metadata__: Metadata for generic models; contains data used for a similar purpose to&#10; &#160;&#160;&#160;&#160;&#160;&#160;&#160;__args__, __origin__, __parameters__ in typing&#45;module generics. May eventually be replaced by these.&#10; &#160;&#160;&#160;__pydantic_parent_namespace__: Parent namespace of the model, used for automatic rebuilding of models.&#10; &#160;&#160;&#160;__pydantic_post_init__: The name of the post&#45;init method for the model, if defined.&#10; &#160;&#160;&#160;__pydantic_root_model__: Whether the model is a [`RootModel`][pydantic.root_model.RootModel].&#10; &#160;&#160;&#160;__pydantic_serializer__: The `pydantic&#45;core` `SchemaSerializer` used to dump instances of the model.&#10; &#160;&#160;&#160;__pydantic_validator__: The `pydantic&#45;core` `SchemaValidator` used to validate instances of the model.&#10;&#10; &#160;&#160;&#160;__pydantic_extra__: A dictionary containing extra values, if [`extra`][pydantic.config.ConfigDict.extra]&#10; &#160;&#160;&#160;&#160;&#160;&#160;&#160;is set to `&#39;allow&#39;`.&#10; &#160;&#160;&#160;__pydantic_fields_set__: The names of fields explicitly set during instantiation.&#10; &#160;&#160;&#160;__pydantic_private__: Values of private attributes set on the model instance.&#10;">
<polygon fill="none" stroke="black" points="369,-486.8 369,-508.8 470,-508.8 470,-486.8 369,-486.8"/>
<text text-anchor="start" x="377.12" y="-494.2" font-family="Times New Roman,Times,Liberation Serif,serif" font-weight="bold" font-size="14.00">BillingAddress</text>
<polygon fill="none" stroke="black" points="369,-464.8 369,-486.8 451,-486.8 451,-464.8 369,-464.8"/>
<text text-anchor="start" x="394.84" y="-471.2" font-family="Times New Roman,Times,Liberation Serif,serif" font-size="14.00">name</text>
<polygon fill="none" stroke="black" points="451,-464.8 451,-486.8 470,-486.8 470,-464.8 451,-464.8"/>
<text text-anchor="start" x="453.5" y="-471.2" font-family="Times New Roman,Times,Liberation Serif,serif" font-size="14.00">str</text>
<polygon fill="none" stroke="black" points="369,-442.8 369,-464.8 451,-464.8 451,-442.8 369,-442.8"/>
<text text-anchor="start" x="371.91" y="-449.2" font-family="Times New Roman,Times,Liberation Serif,serif" font-size="14.00">streetAddress</text>
<polygon fill="none" stroke="black" points="451,-442.8 451,-464.8 470,-464.8 470,-442.8 451,-442.8"/>
<text text-anchor="start" x="453.5" y="-449.2" font-family="Times New Roman,Times,Liberation Serif,serif" font-size="14.00">str</text>
<polygon fill="none" stroke="black" points="369,-420.8 369,-442.8 451,-442.8 451,-420.8 369,-420.8"/>
<text text-anchor="start" x="399.5" y="-427.2" font-family="Times New Roman,Times,Liberation Serif,serif" font-size="14.00">city</text>
<polygon fill="none" stroke="black" points="451,-420.8 451,-442.8 470,-442.8 470,-420.8 451,-420.8"/>
<text text-anchor="start" x="453.5" y="-427.2" font-family="Times New Roman,Times,Liberation Serif,serif" font-size="14.00">str</text>
<polygon fill="none" stroke="black" points="369,-398.8 369,-420.8 451,-420.8 451,-398.8 369,-398.8"/>
<text text-anchor="start" x="397.17" y="-405.2" font-family="Times New Roman,Times,Liberation Serif,serif" font-size="14.00">state</text>
<polygon fill="none" stroke="black" points="451,-398.8 451,-420.8 470,-420.8 470,-398.8 451,-398.8"/>
<text text-anchor="start" x="453.5" y="-405.2" font-family="Times New Roman,Times,Liberation Serif,serif" font-size="14.00">str</text>
<polygon fill="none" stroke="black" points="369,-376.8 369,-398.8 451,-398.8 451,-376.8 369,-376.8"/>
<text text-anchor="start" x="378.5" y="-383.2" font-family="Times New Roman,Times,Liberation Serif,serif" font-size="14.00">postalCode</text>
<polygon fill="none" stroke="black" points="451,-376.8 451,-398.8 470,-398.8 470,-376.8 451,-376.8"/>
<text text-anchor="start" x="453.5" y="-383.2" font-family="Times New Roman,Times,Liberation Serif,serif" font-size="14.00">str</text>
<polygon fill="none" stroke="black" points="369,-354.8 369,-376.8 451,-376.8 451,-354.8 369,-354.8"/>
<text text-anchor="start" x="388.62" y="-361.2" font-family="Times New Roman,Times,Liberation Serif,serif" font-size="14.00">country</text>
<polygon fill="none" stroke="black" points="451,-354.8 451,-376.8 470,-376.8 470,-354.8 451,-354.8"/>
<text text-anchor="start" x="453.5" y="-361.2" font-family="Times New Roman,Times,Liberation Serif,serif" font-size="14.00">str</text>
</a>
</g>
</g>
<!-- schema_display.invoice.Invoice -->
<g id="node2" class="node">
<title>schema_display.invoice.Invoice</title>
<g id="a_node2"><a xlink:title="schema_display.invoice.Invoice&#10;&#10;Usage docs: https://docs.pydantic.dev/2.9/concepts/models/&#10;&#10;A base class for creating Pydantic models.&#10;&#10;Attributes:&#10; &#160;&#160;&#160;__class_vars__: The names of the class variables defined on the model.&#10; &#160;&#160;&#160;__private_attributes__: Metadata about the private attributes of the model.&#10; &#160;&#160;&#160;__signature__: The synthesized `__init__` [`Signature`][inspect.Signature] of the model.&#10;&#10; &#160;&#160;&#160;__pydantic_complete__: Whether model building is completed, or if there are still undefined fields.&#10; &#160;&#160;&#160;__pydantic_core_schema__: The core schema of the model.&#10; &#160;&#160;&#160;__pydantic_custom_init__: Whether the model has a custom `__init__` function.&#10; &#160;&#160;&#160;__pydantic_decorators__: Metadata containing the decorators defined on the model.&#10; &#160;&#160;&#160;&#160;&#160;&#160;&#160;This replaces `Model.__validators__` and `Model.__root_validators__` from Pydantic V1.&#10; &#160;&#160;&#160;__pydantic_generic_metadata__: Metadata for generic models; contains data used for a similar purpose to&#10; &#160;&#160;&#160;&#160;&#160;&#160;&#160;__args__, __origin__, __parameters__ in typing&#45;module generics. May eventually be replaced by these.&#10; &#160;&#160;&#160;__pydantic_parent_namespace__: Parent namespace of the model, used for automatic rebuilding of models.&#10; &#160;&#160;&#160;__pydantic_post_init__: The name of the post&#45;init method for the model, if defined.&#10; &#160;&#160;&#160;__pydantic_root_model__: Whether the model is a [`RootModel`][pydantic.root_model.RootModel].&#10; &#160;&#160;&#160;__pydantic_serializer__: The `pydantic&#45;core` `SchemaSerializer` used to dump instances of the model.&#10; &#160;&#160;&#160;__pydantic_validator__: The `pydantic&#45;core` `SchemaValidator` used to validate instances of the model.&#10;&#10; &#160;&#160;&#160;__pydantic_extra__: A dictionary containing extra values, if [`extra`][pydantic.config.ConfigDict.extra]&#10; &#160;&#160;&#160;&#160;&#160;&#160;&#160;is set to `&#39;allow&#39;`.&#10; &#160;&#160;&#160;__pydantic_fields_set__: The names of fields explicitly set during instantiation.&#10; &#160;&#160;&#160;__pydantic_private__: Values of private attributes set on the model instance.&#10;">
<polygon fill="none" stroke="black" points="0,-406.8 0,-428.8 260,-428.8 260,-406.8 0,-406.8"/>
<text text-anchor="start" x="109.01" y="-414.2" font-family="Times New Roman,Times,Liberation Serif,serif" font-weight="bold" font-size="14.00">Invoice</text>
<polygon fill="none" stroke="black" points="0,-384.8 0,-406.8 100,-406.8 100,-384.8 0,-384.8"/>
<text text-anchor="start" x="6.46" y="-391.2" font-family="Times New Roman,Times,Liberation Serif,serif" font-size="14.00">invoiceNumber</text>
<polygon fill="none" stroke="black" points="100,-384.8 100,-406.8 260,-406.8 260,-384.8 100,-384.8"/>
<text text-anchor="start" x="173" y="-391.2" font-family="Times New Roman,Times,Liberation Serif,serif" font-size="14.00">str</text>
<polygon fill="none" stroke="black" points="0,-362.8 0,-384.8 100,-384.8 100,-362.8 0,-362.8"/>
<text text-anchor="start" x="16.18" y="-369.2" font-family="Times New Roman,Times,Liberation Serif,serif" font-size="14.00">invoiceDate</text>
<polygon fill="none" stroke="black" points="100,-362.8 100,-384.8 260,-384.8 260,-362.8 100,-362.8"/>
<text text-anchor="start" x="168.34" y="-369.2" font-family="Times New Roman,Times,Liberation Serif,serif" font-size="14.00">date</text>
<polygon fill="none" stroke="black" points="0,-340.8 0,-362.8 100,-362.8 100,-340.8 0,-340.8"/>
<text text-anchor="start" x="26.68" y="-347.2" font-family="Times New Roman,Times,Liberation Serif,serif" font-size="14.00">dueDate</text>
<polygon fill="none" stroke="black" points="100,-340.8 100,-362.8 260,-362.8 260,-340.8 100,-340.8"/>
<text text-anchor="start" x="139.18" y="-347.2" font-family="Times New Roman,Times,Liberation Serif,serif" font-size="14.00">Optional[date]</text>
<polygon fill="none" stroke="black" points="0,-318.8 0,-340.8 100,-340.8 100,-318.8 0,-318.8"/>
<text text-anchor="start" x="8.78" y="-325.2" font-family="Times New Roman,Times,Liberation Serif,serif" font-size="14.00">billingAddress</text>
<polygon fill="none" stroke="black" points="100,-318.8 100,-340.8 260,-340.8 260,-318.8 100,-318.8"/>
<text text-anchor="start" x="137.62" y="-325.2" font-family="Times New Roman,Times,Liberation Serif,serif" font-size="14.00">BillingAddress</text>
<polygon fill="none" stroke="black" points="0,-296.8 0,-318.8 100,-318.8 100,-296.8 0,-296.8"/>
<text text-anchor="start" x="2.95" y="-303.2" font-family="Times New Roman,Times,Liberation Serif,serif" font-size="14.00">shippingAddress</text>
<polygon fill="none" stroke="black" points="100,-296.8 100,-318.8 260,-318.8 260,-296.8 100,-296.8"/>
<text text-anchor="start" x="102.63" y="-303.2" font-family="Times New Roman,Times,Liberation Serif,serif" font-size="14.00">Optional[ShippingAddress]</text>
<polygon fill="none" stroke="black" points="0,-274.8 0,-296.8 100,-296.8 100,-274.8 0,-274.8"/>
<text text-anchor="start" x="34.83" y="-281.2" font-family="Times New Roman,Times,Liberation Serif,serif" font-size="14.00">items</text>
<polygon fill="none" stroke="black" points="100,-274.8 100,-296.8 260,-296.8 260,-274.8 100,-274.8"/>
<text text-anchor="start" x="151.62" y="-281.2" font-family="Times New Roman,Times,Liberation Serif,serif" font-size="14.00">List[Item]</text>
<polygon fill="none" stroke="black" points="0,-252.8 0,-274.8 100,-274.8 100,-252.8 0,-252.8"/>
<text text-anchor="start" x="27.83" y="-259.2" font-family="Times New Roman,Times,Liberation Serif,serif" font-size="14.00">subtotal</text>
<polygon fill="none" stroke="black" points="100,-252.8 100,-274.8 260,-274.8 260,-252.8 100,-252.8"/>
<text text-anchor="start" x="167.17" y="-259.2" font-family="Times New Roman,Times,Liberation Serif,serif" font-size="14.00">float</text>
<polygon fill="none" stroke="black" points="0,-230.8 0,-252.8 100,-252.8 100,-230.8 0,-230.8"/>
<text text-anchor="start" x="41.45" y="-237.2" font-family="Times New Roman,Times,Liberation Serif,serif" font-size="14.00">tax</text>
<polygon fill="none" stroke="black" points="100,-230.8 100,-252.8 260,-252.8 260,-230.8 100,-230.8"/>
<text text-anchor="start" x="167.17" y="-237.2" font-family="Times New Roman,Times,Liberation Serif,serif" font-size="14.00">float</text>
<polygon fill="none" stroke="black" points="0,-208.8 0,-230.8 100,-230.8 100,-208.8 0,-208.8"/>
<text text-anchor="start" x="37.56" y="-215.2" font-family="Times New Roman,Times,Liberation Serif,serif" font-size="14.00">total</text>
<polygon fill="none" stroke="black" points="100,-208.8 100,-230.8 260,-230.8 260,-208.8 100,-208.8"/>
<text text-anchor="start" x="167.17" y="-215.2" font-family="Times New Roman,Times,Liberation Serif,serif" font-size="14.00">float</text>
<polygon fill="none" stroke="black" points="0,-186.8 0,-208.8 100,-208.8 100,-186.8 0,-186.8"/>
<text text-anchor="start" x="8.01" y="-193.2" font-family="Times New Roman,Times,Liberation Serif,serif" font-size="14.00">paymentTerms</text>
<polygon fill="none" stroke="black" points="100,-186.8 100,-208.8 260,-208.8 260,-186.8 100,-186.8"/>
<text text-anchor="start" x="143.84" y="-193.2" font-family="Times New Roman,Times,Liberation Serif,serif" font-size="14.00">Optional[str]</text>
<polygon fill="none" stroke="black" points="0,-164.8 0,-186.8 100,-186.8 100,-164.8 0,-164.8"/>
<text text-anchor="start" x="35.23" y="-171.2" font-family="Times New Roman,Times,Liberation Serif,serif" font-size="14.00">notes</text>
<polygon fill="none" stroke="black" points="100,-164.8 100,-186.8 260,-186.8 260,-164.8 100,-164.8"/>
<text text-anchor="start" x="143.84" y="-171.2" font-family="Times New Roman,Times,Liberation Serif,serif" font-size="14.00">Optional[str]</text>
</a>
</g>
</g>
<!-- schema_display.invoice.Invoice&#45;&gt;schema_display.invoice.BillingAddress -->
<g id="edge1" class="edge">
<title>schema_display.invoice.Invoice:e&#45;&gt;schema_display.invoice.BillingAddress:w</title>
<path fill="none" stroke="black" d="M270.15,-330.62C338.47,-342.46 290.32,-477.91 352.89,-495.84"/>
<polyline fill="none" stroke="black" points="260,-329.8 264.98,-330.21 "/>
<polyline fill="none" stroke="black" points="264.98,-330.21 269.97,-330.61 "/>
<polyline fill="none" stroke="black" points="368,-497.8 363.04,-497.16 "/>
<polygon fill="black" stroke="black" points="362.69,-492.07 361.41,-501.99 359.42,-501.73 360.71,-491.81 362.69,-492.07"/>
<polyline fill="none" stroke="black" points="363.04,-497.16 358.08,-496.52 "/>
<polygon fill="black" stroke="black" points="357.73,-491.43 356.45,-501.35 354.47,-501.09 355.75,-491.17 357.73,-491.43"/>
<polyline fill="none" stroke="black" points="358.08,-496.52 353.12,-495.87 "/>
</g>
<!-- schema_display.invoice.Item -->
<g id="node3" class="node">
<title>schema_display.invoice.Item</title>
<g id="a_node3"><a xlink:title="schema_display.invoice.Item&#10;&#10;Usage docs: https://docs.pydantic.dev/2.9/concepts/models/&#10;&#10;A base class for creating Pydantic models.&#10;&#10;Attributes:&#10; &#160;&#160;&#160;__class_vars__: The names of the class variables defined on the model.&#10; &#160;&#160;&#160;__private_attributes__: Metadata about the private attributes of the model.&#10; &#160;&#160;&#160;__signature__: The synthesized `__init__` [`Signature`][inspect.Signature] of the model.&#10;&#10; &#160;&#160;&#160;__pydantic_complete__: Whether model building is completed, or if there are still undefined fields.&#10; &#160;&#160;&#160;__pydantic_core_schema__: The core schema of the model.&#10; &#160;&#160;&#160;__pydantic_custom_init__: Whether the model has a custom `__init__` function.&#10; &#160;&#160;&#160;__pydantic_decorators__: Metadata containing the decorators defined on the model.&#10; &#160;&#160;&#160;&#160;&#160;&#160;&#160;This replaces `Model.__validators__` and `Model.__root_validators__` from Pydantic V1.&#10; &#160;&#160;&#160;__pydantic_generic_metadata__: Metadata for generic models; contains data used for a similar purpose to&#10; &#160;&#160;&#160;&#160;&#160;&#160;&#160;__args__, __origin__, __parameters__ in typing&#45;module generics. May eventually be replaced by these.&#10; &#160;&#160;&#160;__pydantic_parent_namespace__: Parent namespace of the model, used for automatic rebuilding of models.&#10; &#160;&#160;&#160;__pydantic_post_init__: The name of the post&#45;init method for the model, if defined.&#10; &#160;&#160;&#160;__pydantic_root_model__: Whether the model is a [`RootModel`][pydantic.root_model.RootModel].&#10; &#160;&#160;&#160;__pydantic_serializer__: The `pydantic&#45;core` `SchemaSerializer` used to dump instances of the model.&#10; &#160;&#160;&#160;__pydantic_validator__: The `pydantic&#45;core` `SchemaValidator` used to validate instances of the model.&#10;&#10; &#160;&#160;&#160;__pydantic_extra__: A dictionary containing extra values, if [`extra`][pydantic.config.ConfigDict.extra]&#10; &#160;&#160;&#160;&#160;&#160;&#160;&#160;is set to `&#39;allow&#39;`.&#10; &#160;&#160;&#160;__pydantic_fields_set__: The names of fields explicitly set during instantiation.&#10; &#160;&#160;&#160;__pydantic_private__: Values of private attributes set on the model instance.&#10;">
<polygon fill="none" stroke="black" points="370,-106.8 370,-128.8 469,-128.8 469,-106.8 370,-106.8"/>
<text text-anchor="start" x="406.67" y="-114.2" font-family="Times New Roman,Times,Liberation Serif,serif" font-weight="bold" font-size="14.00">Item</text>
<polygon fill="none" stroke="black" points="370,-84.8 370,-106.8 438,-106.8 438,-84.8 370,-84.8"/>
<text text-anchor="start" x="372.9" y="-91.2" font-family="Times New Roman,Times,Liberation Serif,serif" font-size="14.00">description</text>
<polygon fill="none" stroke="black" points="438,-84.8 438,-106.8 469,-106.8 469,-84.8 438,-84.8"/>
<text text-anchor="start" x="446.5" y="-91.2" font-family="Times New Roman,Times,Liberation Serif,serif" font-size="14.00">str</text>
<polygon fill="none" stroke="black" points="370,-62.8 370,-84.8 438,-84.8 438,-62.8 370,-62.8"/>
<text text-anchor="start" x="381.06" y="-69.2" font-family="Times New Roman,Times,Liberation Serif,serif" font-size="14.00">quantity</text>
<polygon fill="none" stroke="black" points="438,-62.8 438,-84.8 469,-84.8 469,-62.8 438,-62.8"/>
<text text-anchor="start" x="440.67" y="-69.2" font-family="Times New Roman,Times,Liberation Serif,serif" font-size="14.00">float</text>
<polygon fill="none" stroke="black" points="370,-40.8 370,-62.8 438,-62.8 438,-40.8 370,-40.8"/>
<text text-anchor="start" x="378.73" y="-47.2" font-family="Times New Roman,Times,Liberation Serif,serif" font-size="14.00">unitPrice</text>
<polygon fill="none" stroke="black" points="438,-40.8 438,-62.8 469,-62.8 469,-40.8 438,-40.8"/>
<text text-anchor="start" x="440.67" y="-47.2" font-family="Times New Roman,Times,Liberation Serif,serif" font-size="14.00">float</text>
<polygon fill="none" stroke="black" points="370,-18.8 370,-40.8 438,-40.8 438,-18.8 370,-18.8"/>
<text text-anchor="start" x="377.18" y="-25.2" font-family="Times New Roman,Times,Liberation Serif,serif" font-size="14.00">totalPrice</text>
<polygon fill="none" stroke="black" points="438,-18.8 438,-40.8 469,-40.8 469,-18.8 438,-18.8"/>
<text text-anchor="start" x="440.67" y="-25.2" font-family="Times New Roman,Times,Liberation Serif,serif" font-size="14.00">float</text>
</a>
</g>
</g>
<!-- schema_display.invoice.Invoice&#45;&gt;schema_display.invoice.Item -->
<g id="edge2" class="edge">
<title>schema_display.invoice.Invoice:e&#45;&gt;schema_display.invoice.Item:w</title>
<path fill="none" stroke="black" d="M270.18,-284.98C338.73,-273.14 291.02,-137.69 353.84,-119.76"/>
<polyline fill="none" stroke="black" points="260,-285.8 264.98,-285.4 "/>
<polyline fill="none" stroke="black" points="264.98,-285.4 269.97,-284.99 "/>
<polygon fill="black" stroke="black" points="359.08,-119.08 369.58,-122.26 364.04,-118.44 369,-117.8 369,-117.8 369,-117.8 364.04,-118.44 368.42,-113.34 359.08,-119.08 359.08,-119.08"/>
<polyline fill="none" stroke="black" points="359.08,-119.08 354.12,-119.72 "/>
</g>
<!-- schema_display.invoice.ShippingAddress -->
<g id="node4" class="node">
<title>schema_display.invoice.ShippingAddress</title>
<g id="a_node4"><a xlink:title="schema_display.invoice.ShippingAddress&#10;&#10;Usage docs: https://docs.pydantic.dev/2.9/concepts/models/&#10;&#10;A base class for creating Pydantic models.&#10;&#10;Attributes:&#10; &#160;&#160;&#160;__class_vars__: The names of the class variables defined on the model.&#10; &#160;&#160;&#160;__private_attributes__: Metadata about the private attributes of the model.&#10; &#160;&#160;&#160;__signature__: The synthesized `__init__` [`Signature`][inspect.Signature] of the model.&#10;&#10; &#160;&#160;&#160;__pydantic_complete__: Whether model building is completed, or if there are still undefined fields.&#10; &#160;&#160;&#160;__pydantic_core_schema__: The core schema of the model.&#10; &#160;&#160;&#160;__pydantic_custom_init__: Whether the model has a custom `__init__` function.&#10; &#160;&#160;&#160;__pydantic_decorators__: Metadata containing the decorators defined on the model.&#10; &#160;&#160;&#160;&#160;&#160;&#160;&#160;This replaces `Model.__validators__` and `Model.__root_validators__` from Pydantic V1.&#10; &#160;&#160;&#160;__pydantic_generic_metadata__: Metadata for generic models; contains data used for a similar purpose to&#10; &#160;&#160;&#160;&#160;&#160;&#160;&#160;__args__, __origin__, __parameters__ in typing&#45;module generics. May eventually be replaced by these.&#10; &#160;&#160;&#160;__pydantic_parent_namespace__: Parent namespace of the model, used for automatic rebuilding of models.&#10; &#160;&#160;&#160;__pydantic_post_init__: The name of the post&#45;init method for the model, if defined.&#10; &#160;&#160;&#160;__pydantic_root_model__: Whether the model is a [`RootModel`][pydantic.root_model.RootModel].&#10; &#160;&#160;&#160;__pydantic_serializer__: The `pydantic&#45;core` `SchemaSerializer` used to dump instances of the model.&#10; &#160;&#160;&#160;__pydantic_validator__: The `pydantic&#45;core` `SchemaValidator` used to validate instances of the model.&#10;&#10; &#160;&#160;&#160;__pydantic_extra__: A dictionary containing extra values, if [`extra`][pydantic.config.ConfigDict.extra]&#10; &#160;&#160;&#160;&#160;&#160;&#160;&#160;is set to `&#39;allow&#39;`.&#10; &#160;&#160;&#160;__pydantic_fields_set__: The names of fields explicitly set during instantiation.&#10; &#160;&#160;&#160;__pydantic_private__: Values of private attributes set on the model instance.&#10;">
<polygon fill="none" stroke="black" points="368,-296.8 368,-318.8 470,-318.8 470,-296.8 368,-296.8"/>
<text text-anchor="start" x="370.78" y="-304.2" font-family="Times New Roman,Times,Liberation Serif,serif" font-weight="bold" font-size="14.00">ShippingAddress</text>
<polygon fill="none" stroke="black" points="368,-274.8 368,-296.8 450,-296.8 450,-274.8 368,-274.8"/>
<text text-anchor="start" x="393.84" y="-281.2" font-family="Times New Roman,Times,Liberation Serif,serif" font-size="14.00">name</text>
<polygon fill="none" stroke="black" points="450,-274.8 450,-296.8 470,-296.8 470,-274.8 450,-274.8"/>
<text text-anchor="start" x="453" y="-281.2" font-family="Times New Roman,Times,Liberation Serif,serif" font-size="14.00">str</text>
<polygon fill="none" stroke="black" points="368,-252.8 368,-274.8 450,-274.8 450,-252.8 368,-252.8"/>
<text text-anchor="start" x="370.91" y="-259.2" font-family="Times New Roman,Times,Liberation Serif,serif" font-size="14.00">streetAddress</text>
<polygon fill="none" stroke="black" points="450,-252.8 450,-274.8 470,-274.8 470,-252.8 450,-252.8"/>
<text text-anchor="start" x="453" y="-259.2" font-family="Times New Roman,Times,Liberation Serif,serif" font-size="14.00">str</text>
<polygon fill="none" stroke="black" points="368,-230.8 368,-252.8 450,-252.8 450,-230.8 368,-230.8"/>
<text text-anchor="start" x="398.5" y="-237.2" font-family="Times New Roman,Times,Liberation Serif,serif" font-size="14.00">city</text>
<polygon fill="none" stroke="black" points="450,-230.8 450,-252.8 470,-252.8 470,-230.8 450,-230.8"/>
<text text-anchor="start" x="453" y="-237.2" font-family="Times New Roman,Times,Liberation Serif,serif" font-size="14.00">str</text>
<polygon fill="none" stroke="black" points="368,-208.8 368,-230.8 450,-230.8 450,-208.8 368,-208.8"/>
<text text-anchor="start" x="396.17" y="-215.2" font-family="Times New Roman,Times,Liberation Serif,serif" font-size="14.00">state</text>
<polygon fill="none" stroke="black" points="450,-208.8 450,-230.8 470,-230.8 470,-208.8 450,-208.8"/>
<text text-anchor="start" x="453" y="-215.2" font-family="Times New Roman,Times,Liberation Serif,serif" font-size="14.00">str</text>
<polygon fill="none" stroke="black" points="368,-186.8 368,-208.8 450,-208.8 450,-186.8 368,-186.8"/>
<text text-anchor="start" x="377.5" y="-193.2" font-family="Times New Roman,Times,Liberation Serif,serif" font-size="14.00">postalCode</text>
<polygon fill="none" stroke="black" points="450,-186.8 450,-208.8 470,-208.8 470,-186.8 450,-186.8"/>
<text text-anchor="start" x="453" y="-193.2" font-family="Times New Roman,Times,Liberation Serif,serif" font-size="14.00">str</text>
<polygon fill="none" stroke="black" points="368,-164.8 368,-186.8 450,-186.8 450,-164.8 368,-164.8"/>
<text text-anchor="start" x="387.62" y="-171.2" font-family="Times New Roman,Times,Liberation Serif,serif" font-size="14.00">country</text>
<polygon fill="none" stroke="black" points="450,-164.8 450,-186.8 470,-186.8 470,-164.8 450,-164.8"/>
<text text-anchor="start" x="453" y="-171.2" font-family="Times New Roman,Times,Liberation Serif,serif" font-size="14.00">str</text>
</a>
</g>
</g>
<!-- schema_display.invoice.Invoice&#45;&gt;schema_display.invoice.ShippingAddress -->
<g id="edge3" class="edge">
<title>schema_display.invoice.Invoice:e&#45;&gt;schema_display.invoice.ShippingAddress:w</title>
<path fill="none" stroke="black" d="M270.12,-307.8C303.91,-307.8 318.81,-307.8 349.64,-307.8"/>
<polyline fill="none" stroke="black" points="260,-307.8 265,-307.8 "/>
<polyline fill="none" stroke="black" points="265,-307.8 270,-307.8 "/>
<polyline fill="none" stroke="black" points="368,-307.8 363,-307.8 "/>
<polygon fill="black" stroke="black" points="362,-302.8 362,-312.8 360,-312.8 360,-302.8 362,-302.8"/>
<polyline fill="none" stroke="black" points="363,-307.8 358,-307.8 "/>
<ellipse fill="none" stroke="black" cx="354" cy="-307.8" rx="4" ry="4"/>
</g>
</g>
</svg>
